<?xml version="1.0" encoding="UTF-8"?>
<svg width="16px" height="26px" viewBox="0 0 16 26" version="1.1" xmlns="http://www.w3.org/2000/svg" xmlns:xlink="http://www.w3.org/1999/xlink">
    <!-- Generator: Sketch 51.3 (57544) - http://www.bohemiancoding.com/sketch -->
    <title>icon-plus-minus</title>
    <desc>Created with Sketch.</desc>
    <defs></defs>
    <g id="Page-1" stroke="none" stroke-width="1" fill="none" fill-rule="evenodd">
        <g id="icon-plus-minus" fill="#FFFFFF" fill-rule="nonzero">
            <g id="minus">
                <path d="M0,0.5 L0,3.5 C0,3.776 0.224,4 0.5,4 L15.5,4 C15.776,4 16,3.776 16,3.5 L16,0.5 C16,0.224 15.776,0 15.5,0 L0.5,0 C0.224,0 0,0.224 0,0.5 Z" id="Shape"></path>
            </g>
            <g id="plus" transform="translate(0.000000, 10.000000)">
                <path d="M15.5,6 L10,6 L10,0.5 C10,0.224 9.776,0 9.5,0 L6.5,0 C6.224,0 6,0.224 6,0.5 L6,6 L0.5,6 C0.224,6 0,6.224 0,6.5 L0,9.5 C0,9.776 0.224,10 0.5,10 L6,10 L6,15.5 C6,15.776 6.224,16 6.5,16 L9.5,16 C9.776,16 10,15.776 10,15.5 L10,10 L15.5,10 C15.776,10 16,9.776 16,9.5 L16,6.5 C16,6.224 15.776,6 15.5,6 Z" id="Shape"></path>
            </g>
        </g>
    </g>
</svg>